<svg xmlns="http://www.w3.org/2000/svg" width="27.665" height="27.665" viewBox="0 0 27.665 27.665"><defs><style>.a{fill:#fff;}</style></defs><path class="a" d="M23.613,4.052A13.832,13.832,0,1,0,4.052,23.613,13.832,13.832,0,1,0,23.613,4.052ZM22.5,22.5A12.259,12.259,0,0,1,5.164,5.164,12.259,12.259,0,1,1,22.5,22.5Z" transform="translate(0 0)"/><path class="a" d="M141.347,129.156a.784.784,0,0,0-1.112,0l-4.983,4.983-4.983-4.983a.786.786,0,0,0-1.112,1.112l4.983,4.983-4.983,4.983a.789.789,0,0,0,.553,1.345.767.767,0,0,0,.553-.233l4.983-4.983,4.983,4.983a.791.791,0,0,0,.553.233.757.757,0,0,0,.553-.233.784.784,0,0,0,0-1.112l-4.972-4.983,4.983-4.983A.784.784,0,0,0,141.347,129.156Z" transform="translate(-121.419 -121.419)"/></svg>