<svg xmlns="http://www.w3.org/2000/svg" width="171.604" height="43.503" viewBox="0 0 171.604 43.503"><defs><style>.a,.c{fill:#fff;}.a{font-size:18px;font-family:Roboto-Bold, Roboto;font-weight:700;opacity:0.998;}.b{fill:#2387af;}.d{fill:#ef9e0f;}</style></defs><g transform="translate(-46.396 -8)"><text class="a" transform="translate(111 27)"><tspan x="0" y="0">Management</tspan><tspan x="0" y="20">System</tspan></text><g transform="translate(-290.825 -59.742)"><g transform="translate(337.221 67.742)"><path class="b" d="M394.423,100.867l-8.788-8.788a.932.932,0,0,0-1.591.659v3.65h-36.55V78.015h18.375V93.821h10.274V75.4a7.669,7.669,0,0,0-7.66-7.659h-23.6a7.668,7.668,0,0,0-7.66,7.659V99a7.668,7.668,0,0,0,7.66,7.66h39.163v3.65a.932.932,0,0,0,1.591.659l8.788-8.788a.932.932,0,0,0,0-1.317Z" transform="translate(-337.221 -67.742)"/><g transform="translate(4.544 4.544)"><path class="c" d="M397.457,110h-3.952v-1.185h3.952Zm-7.9,0H385.6v-1.185h3.951Zm-7.9,0H377.7v-1.185h3.951Zm-7.9,0H369.8v-1.185h3.952Zm-7.9,0h-3.951v-1.185h3.951Zm-7.9,0h-3.952v-1.185h3.952Zm-7.927-1.641a3.122,3.122,0,0,1-.371-1.475v-2.707h1.185v2.707a1.907,1.907,0,0,0,.229.913Zm.814-8.134h-1.185V96.273h1.185Zm28.648-.1h-1.185V98.029h1.185Zm0-6.042h-1.185V90.126h1.185ZM350.83,92.322h-1.185V88.37h1.185Zm28.648-6.146h-1.185V83.281a1.924,1.924,0,0,0-.167-.785l1.082-.483a3.089,3.089,0,0,1,.27,1.268ZM350.83,84.419h-1.185V83.281a3.1,3.1,0,0,1,1.743-2.8l.522,1.064a1.92,1.92,0,0,0-1.08,1.734Zm24.488-3.068h-3.952V80.166h3.952Zm-7.9,0h-3.951V80.166h3.951Zm-7.9,0h-3.951V80.166h3.951Z" transform="translate(-349.645 -80.166)"/></g></g><rect class="d" width="11.772" height="11.963" transform="translate(350.742 81.219)"/></g></g></svg>