<svg xmlns="http://www.w3.org/2000/svg" width="174" height="38" viewBox="0 0 174 38"><defs><style>.a,.b{fill:#fff;}.a{font-size:14px;font-family:Roboto-Bold, Roboto;font-weight:700;}</style></defs><g transform="translate(-31 -870)"><text class="a" transform="translate(85 894)"><tspan x="0" y="0">By Company Name</tspan></text><path class="b" d="M-2187-11h-32a4.005,4.005,0,0,1-4-4V-45a4,4,0,0,1,4-4h32a4,4,0,0,1,4,4v30A4.005,4.005,0,0,1-2187-11Zm-29-35a4,4,0,0,0-4,4v24a4,4,0,0,0,4,4h26a4,4,0,0,0,4-4V-42a4,4,0,0,0-4-4Z" transform="translate(2254 919)"/></g></svg>