<svg xmlns="http://www.w3.org/2000/svg" width="19.691" height="24.366" viewBox="0 0 19.691 24.366"><defs><style>.a{fill:#b2d235;}</style></defs><g transform="translate(0)"><g transform="translate(0 3.553)"><path class="a" d="M62.278,91.666,60.587,88.76a8.842,8.842,0,0,1-1.192-4.441V81.774a6.895,6.895,0,1,0-13.783,0v2.545a8.842,8.842,0,0,1-1.192,4.441l-1.691,2.906a.521.521,0,0,0-.007.511.492.492,0,0,0,.429.258H61.856a.491.491,0,0,0,.429-.258A.521.521,0,0,0,62.278,91.666Zm-18.259-.247,1.243-2.137A9.872,9.872,0,0,0,46.6,84.319V81.774a5.91,5.91,0,1,1,11.814,0v2.545a9.881,9.881,0,0,0,1.332,4.963l1.244,2.137Z" transform="translate(-42.657 -74.667)"/></g><g transform="translate(7.877)"><path class="a" d="M215.3,0a2,2,0,0,0-1.969,2.031V4.061a.492.492,0,1,0,.985,0V2.031a.985.985,0,1,1,1.969,0V4.061a.492.492,0,1,0,.985,0V2.031A2,2,0,0,0,215.3,0Z" transform="translate(-213.333)"/></g><g transform="translate(7.384 20.306)"><path class="a" d="M207.258,426.93a.488.488,0,0,0-.674-.182.517.517,0,0,0-.176.7,1.553,1.553,0,0,1,.2.758,1.477,1.477,0,1,1-2.954,0,1.552,1.552,0,0,1,.2-.758.518.518,0,0,0-.176-.7.487.487,0,0,0-.674.182,2.582,2.582,0,0,0-.333,1.272,2.463,2.463,0,1,0,4.925,0A2.582,2.582,0,0,0,207.258,426.93Z" transform="translate(-202.666 -426.68)"/></g></g></svg>