<svg xmlns="http://www.w3.org/2000/svg" width="23.646" height="23.648" viewBox="0 0 23.646 23.648"><defs><style>.a{fill:#fff;}</style></defs><g transform="translate(-0.002)"><g transform="translate(0.002)"><circle class="a" cx="2.038" cy="2.038" r="2.038" transform="translate(9.786 9.786)"/><path class="a" d="M23.168,9.8,20.32,9.27a8.762,8.762,0,0,0-.681-1.649l1.648-2.41a.611.611,0,0,0-.07-.749L19.184,2.43a.611.611,0,0,0-.748-.07L16.025,4.009a8.806,8.806,0,0,0-1.7-.694L13.795.481A.611.611,0,0,0,13.215,0H10.342a.613.613,0,0,0-.58.481L9.225,3.342a8.784,8.784,0,0,0-1.631.681L5.215,2.4a.611.611,0,0,0-.749.07L2.433,4.5a.612.612,0,0,0-.07.749L4,7.641a8.83,8.83,0,0,0-.671,1.629L.482,9.8a.613.613,0,0,0-.48.58v2.874a.614.614,0,0,0,.48.58l2.846.534a8.81,8.81,0,0,0,.685,1.662L2.394,18.4a.611.611,0,0,0,.07.749L4.5,21.183a.613.613,0,0,0,.749.071l2.367-1.62a8.845,8.845,0,0,0,1.613.672l.537,2.863a.612.612,0,0,0,.58.48h2.874a.612.612,0,0,0,.58-.48l.532-2.834a8.9,8.9,0,0,0,1.681-.685l2.4,1.64a.61.61,0,0,0,.749-.071l2.031-2.031a.612.612,0,0,0,.071-.749l-1.631-2.383a8.843,8.843,0,0,0,.7-1.682l2.846-.534a.613.613,0,0,0,.479-.58V10.385A.609.609,0,0,0,23.168,9.8ZM11.826,16.756a4.932,4.932,0,1,1,4.933-4.933A4.932,4.932,0,0,1,11.826,16.756Z" transform="translate(-0.002)"/></g></g></svg>